<svg xmlns="http://www.w3.org/2000/svg" xmlns:xlink="http://www.w3.org/1999/xlink" width="500" zoomAndPan="magnify" viewBox="0 0 375 374.999991" height="500" preserveAspectRatio="xMidYMid meet" version="1.0"><defs><g/></defs><path fill="#7cd3ed" d="M 114.066406 219.054688 C 33.117188 265.675781 46.429688 273.332031 46.429688 180.09375 C 46.429688 86.71875 33.117188 94.375 114.066406 140.996094 C 194.882812 187.75 194.882812 172.433594 114.066406 219.054688 Z M 114.066406 219.054688 " fill-opacity="1" fill-rule="evenodd"/><path fill="#1bafdb" d="M 192.195312 219.054688 C 111.242188 265.675781 124.554688 273.332031 124.554688 180.09375 C 124.554688 86.71875 111.242188 94.375 192.195312 140.996094 C 273.011719 187.75 273.011719 172.433594 192.195312 219.054688 Z M 192.195312 219.054688 " fill-opacity="1" fill-rule="evenodd"/><path fill="#1273ca" d="M 270.320312 219.054688 C 189.371094 265.675781 202.683594 273.332031 202.683594 180.09375 C 202.683594 86.71875 189.371094 94.375 270.320312 140.996094 C 351.140625 187.75 351.140625 172.433594 270.320312 219.054688 Z M 270.320312 219.054688 " fill-opacity="1" fill-rule="evenodd"/><g fill="#ffffff" fill-opacity="1"><g transform="translate(52.699227, 208.140874)"><g><path d="M 33.890625 1.125 C 27.953125 1.125 22.625 -0.125 17.90625 -2.625 C 13.195312 -5.132812 9.492188 -8.625 6.796875 -13.09375 C 4.097656 -17.570312 2.75 -22.644531 2.75 -28.3125 C 2.75 -33.96875 4.097656 -39.03125 6.796875 -43.5 C 9.492188 -47.976562 13.195312 -51.472656 17.90625 -53.984375 C 22.625 -56.492188 27.953125 -57.75 33.890625 -57.75 C 39.066406 -57.75 43.726562 -56.832031 47.875 -55 C 52.03125 -53.164062 55.484375 -50.519531 58.234375 -47.0625 L 48.046875 -37.84375 C 44.378906 -42.269531 39.929688 -44.484375 34.703125 -44.484375 C 31.617188 -44.484375 28.878906 -43.804688 26.484375 -42.453125 C 24.085938 -41.109375 22.226562 -39.207031 20.90625 -36.75 C 19.582031 -34.300781 18.921875 -31.488281 18.921875 -28.3125 C 18.921875 -25.125 19.582031 -22.300781 20.90625 -19.84375 C 22.226562 -17.394531 24.085938 -15.492188 26.484375 -14.140625 C 28.878906 -12.796875 31.617188 -12.125 34.703125 -12.125 C 39.929688 -12.125 44.378906 -14.335938 48.046875 -18.765625 L 58.234375 -9.546875 C 55.484375 -6.097656 52.03125 -3.457031 47.875 -1.625 C 43.726562 0.207031 39.066406 1.125 33.890625 1.125 Z M 33.890625 1.125 "/></g></g></g><g fill="#ffffff" fill-opacity="1"><g transform="translate(130.740757, 208.140874)"><g><path d="M 25.5625 1.125 C 20.976562 1.125 16.523438 0.5625 12.203125 -0.5625 C 7.890625 -1.695312 4.390625 -3.207031 1.703125 -5.09375 L 6.953125 -16.90625 C 9.484375 -15.226562 12.421875 -13.878906 15.765625 -12.859375 C 19.109375 -11.835938 22.398438 -11.328125 25.640625 -11.328125 C 31.785156 -11.328125 34.859375 -12.863281 34.859375 -15.9375 C 34.859375 -17.550781 33.976562 -18.75 32.21875 -19.53125 C 30.46875 -20.3125 27.65625 -21.132812 23.78125 -22 C 19.519531 -22.914062 15.957031 -23.898438 13.09375 -24.953125 C 10.238281 -26.003906 7.785156 -27.6875 5.734375 -30 C 3.691406 -32.320312 2.671875 -35.453125 2.671875 -39.390625 C 2.671875 -42.835938 3.613281 -45.945312 5.5 -48.71875 C 7.382812 -51.5 10.203125 -53.695312 13.953125 -55.3125 C 17.703125 -56.9375 22.296875 -57.75 27.734375 -57.75 C 31.460938 -57.75 35.128906 -57.328125 38.734375 -56.484375 C 42.347656 -55.648438 45.53125 -54.425781 48.28125 -52.8125 L 43.34375 -40.921875 C 37.957031 -43.835938 32.726562 -45.296875 27.65625 -45.296875 C 24.476562 -45.296875 22.160156 -44.820312 20.703125 -43.875 C 19.242188 -42.925781 18.515625 -41.695312 18.515625 -40.1875 C 18.515625 -38.6875 19.378906 -37.554688 21.109375 -36.796875 C 22.835938 -36.046875 25.613281 -35.265625 29.4375 -34.453125 C 33.75 -33.535156 37.320312 -32.550781 40.15625 -31.5 C 42.988281 -30.445312 45.441406 -28.773438 47.515625 -26.484375 C 49.585938 -24.191406 50.625 -21.078125 50.625 -17.140625 C 50.625 -13.742188 49.679688 -10.671875 47.796875 -7.921875 C 45.910156 -5.171875 43.078125 -2.972656 39.296875 -1.328125 C 35.523438 0.304688 30.945312 1.125 25.5625 1.125 Z M 25.5625 1.125 "/></g></g></g><g fill="#ffffff" fill-opacity="1"><g transform="translate(208.953082, 208.140874)"><g><path d="M 25.5625 1.125 C 20.976562 1.125 16.523438 0.5625 12.203125 -0.5625 C 7.890625 -1.695312 4.390625 -3.207031 1.703125 -5.09375 L 6.953125 -16.90625 C 9.484375 -15.226562 12.421875 -13.878906 15.765625 -12.859375 C 19.109375 -11.835938 22.398438 -11.328125 25.640625 -11.328125 C 31.785156 -11.328125 34.859375 -12.863281 34.859375 -15.9375 C 34.859375 -17.550781 33.976562 -18.75 32.21875 -19.53125 C 30.46875 -20.3125 27.65625 -21.132812 23.78125 -22 C 19.519531 -22.914062 15.957031 -23.898438 13.09375 -24.953125 C 10.238281 -26.003906 7.785156 -27.6875 5.734375 -30 C 3.691406 -32.320312 2.671875 -35.453125 2.671875 -39.390625 C 2.671875 -42.835938 3.613281 -45.945312 5.5 -48.71875 C 7.382812 -51.5 10.203125 -53.695312 13.953125 -55.3125 C 17.703125 -56.9375 22.296875 -57.75 27.734375 -57.75 C 31.460938 -57.75 35.128906 -57.328125 38.734375 -56.484375 C 42.347656 -55.648438 45.53125 -54.425781 48.28125 -52.8125 L 43.34375 -40.921875 C 37.957031 -43.835938 32.726562 -45.296875 27.65625 -45.296875 C 24.476562 -45.296875 22.160156 -44.820312 20.703125 -43.875 C 19.242188 -42.925781 18.515625 -41.695312 18.515625 -40.1875 C 18.515625 -38.6875 19.378906 -37.554688 21.109375 -36.796875 C 22.835938 -36.046875 25.613281 -35.265625 29.4375 -34.453125 C 33.75 -33.535156 37.320312 -32.550781 40.15625 -31.5 C 42.988281 -30.445312 45.441406 -28.773438 47.515625 -26.484375 C 49.585938 -24.191406 50.625 -21.078125 50.625 -17.140625 C 50.625 -13.742188 49.679688 -10.671875 47.796875 -7.921875 C 45.910156 -5.171875 43.078125 -2.972656 39.296875 -1.328125 C 35.523438 0.304688 30.945312 1.125 25.5625 1.125 Z M 25.5625 1.125 "/></g></g></g></svg>